# xmcd
#
# Track frame offsets:
#	150
#	18524
#	39113
#	57666
#	70266
#	83815
#	100019
#	117473
#	131871
#	145865
#	162149
#	176104
#	192272
#	208904
#	223541
#	241017
#	255092
#	268955
#	285519
#	302396
#	320236
#	336841
#
# Disc length: 4708 seconds
#
# Revision: 0
# Processed by: cddbd v1.5.2PL0 Copyright (c) Steve Scherf et al.
# Submitted via: EasyCDDAExtractor 11.5.0.1
#
DISCID=46126216
DTITLE=Various Artist - NCT 113
DYEAR=2008
DGENRE=Country
TTITLE0=Alan Jackson - Country Boy
TTITLE1=Sugarland - Already Gone
TTITLE2=Keith Anderson - Somebody Needs A Hug
TTITLE3=Kenny Chesney - Everyone Wants To Go To Heaven
TTITLE4=Chris Cagle - Never Ever Gone
TTITLE5=Blake Shelton - She Wouldn't Be Gone
TTITLE6=Trace Adkins - Muddy Water
TTITLE7=Jeff Griffith - Fishin' Forever
TTITLE8=Jake Owens - Don't Think I Can't Love You
TTITLE9=Josh Turner - Everything Is Fine
TTITLE10=Randy Houser - Anything Goes
TTITLE11=Laura Bryna - Hometown Heroes
TTITLE12=Randy Rogers Band - In My Arms Instead
TTITLE13=Josh Gracin - Unbelievable (Ann Marie)
TTITLE14=Dolly Parton - Shinoia
TTITLE15=Trailer Choir - Rockin' The Beer Gut
TTITLE16=Trent Wilmon - Cold Beer And A Fishin' Pole
TTITLE17=Bailey Grey - Beach Weekend
TTITLE18=Zane Lewis - Welcome To The Southland
TTITLE19=Gordon Mote - Wake Up Dancin'
TTITLE20=Emma Mae - With You
TTITLE21=Darren Kozelsky - She Got Me There
EXTD=
EXTT0=
EXTT1=
EXTT2=
EXTT3=
EXTT4=
EXTT5=
EXTT6=
EXTT7=
EXTT8=
EXTT9=
EXTT10=
EXTT11=
EXTT12=
EXTT13=
EXTT14=
EXTT15=
EXTT16=
EXTT17=
EXTT18=
EXTT19=
EXTT20=
EXTT21=
PLAYORDER=
